<svg xmlns="http://www.w3.org/2000/svg" width="1024" height="576" viewBox="0 0 1024 576" shape-rendering="crispEdges">
      <path d="M0 0h1024v576H0z" fill="#000000" opacity="0"/>
      <path d="M40 96h122v42H40zM240 72h168v48H240zM612 84h176v48H612zM846 118h108v35H846z" fill="#f0e8d8" opacity=".54"/>
      <path d="M58 82h60v28H58zM276 54h80v34h-80zM654 64h88v36h-88zM874 102h48v26h-48z" fill="#fffff0" opacity=".42"/>
      <path d="M70 342h188v30H70zM348 300h236v36H348zM712 328h226v32H712z" fill="#304068" opacity=".34"/>
      <path d="M95 300h26v68H95zM198 284h30v84h-30zM390 246h32v86h-32zM525 232h36v100h-36zM746 266h32v88h-32zM876 250h36v104h-36z" fill="#222e48" opacity=".35"/>
      <path d="M82 292h162v10H82zM368 238h204v12H368zM725 258h202v12H725z" fill="#222e48" opacity=".42"/>
      <path d="M108 274h8v18h-8zM209 264h10v20h-10zM403 220h10v20h-10zM540 214h12v18h-12zM758 244h10v20h-10zM890 228h12v22h-12z" fill="#30c8c0" opacity=".2"/>
      <path d="M54 374h226v12H54zM326 336h282v12H326zM690 360h270v12H690z" fill="#489030" opacity=".28"/>
      <path d="M62 366h210v8H62zM334 328h264v8H334zM700 352h250v8H700z" fill="#78d050" opacity=".34"/>
      <path d="M0 424h150v-36h110v-26h140v44h122v-30h142v42h136v-34h224v192H0z" fill="#1a3818" opacity=".32"/>
      <path d="M0 448h162v-34h118v-24h132v42h122v-28h148v40h120v-32h222v164H0z" fill="#2e6840" opacity=".28"/>
      <path d="M84 408h10v168H84zM262 392h12v184h-12zM458 420h10v156h-10zM742 402h14v174h-14zM934 416h12v160h-12z" fill="#402818" opacity=".35"/>
      <path d="M98 470h62v10H98zM236 502h46v9h-46zM466 478h60v10h-60zM704 514h58v10h-58zM888 490h64v10h-64z" fill="#583a20" opacity=".35"/>
    </svg>
