<svg xmlns="http://www.w3.org/2000/svg" width="24" height="32" viewBox="0 0 24 32" shape-rendering="crispEdges">
      <path d="M4 31h16v1H4z" fill="#000000" opacity=".25"/>
      <path d="M7 27h4v4H7zM14 27h4v4h-4z" fill="#1a3818"/>
      <path d="M5 10h14v17H5z" fill="#1c1f2a"/>
      <path d="M7 12h10v13H7z" fill="#f3c64b"/>
      <path d="M6 6h12v8H6z" fill="#ffd090"/>
      <path d="M6 5h12v4H6z" fill="#281a10"/>
      <path d="M15 9h2v2h-2z" fill="#1c1f2a"/>
      <path d="M16 9h1v1h-1z" fill="#ffffff"/>
      <path d="M3 15h5v2H3zM1 17h5v2H1z" fill="#b83020"/><path d="M1 19h3v2H1z" fill="#701818"/>
      <path d="M16 18h4v3h-4z" fill="#ffd090"/>
      
      <path d="M4 10h1v17H4zM19 10h1v17h-1zM5 27h15v1H5z" fill="#1c1f2a"/>
    </svg>
