<svg xmlns="http://www.w3.org/2000/svg" width="64" height="64" viewBox="0 0 64 64" shape-rendering="crispEdges">
      <path d="M13 19h8v39h-8zM43 19h8v39h-8zM17 11h30v10H17z" fill="#28221a"/>
      <path d="M15 20h7v36h-7zM42 20h7v36h-7zM18 12h28v8H18z" fill="#504030"/>
      <path d="M16 20h5v5h-5zM43 24h5v5h-5zM23 13h7v3h-7zM34 14h8v3h-8z" fill="#907858"/>
      <path d="M22 22h20v34H22z" fill="#0b3048" opacity=".75"/>
      <path d="M25 24h14v30H25z" fill="#40d8f8" opacity=".65"/>
      <path d="M30 22h4v34h-4z" fill="#a0f0ff" opacity=".85"/>
      <path d="M24 33h16v1H24zM26 42h12v1H26zM24 50h16v1H24z" fill="#e8ffff"/>
      <path d="M21 10h5v2h-5zM30 10h5v2h-5zM39 10h4v2h-4z" fill="#30c8c0"/>
      <path d="M14 20h6v2h-6zM44 20h5v2h-5zM19 11h25v1H19z" fill="#c8a878" opacity=".55"/>
      <path d="M14 28h3v2h-3zM45 32h4v2h-4zM24 17h3v2h-3z" fill="#68c040"/>
    </svg>
