<svg xmlns="http://www.w3.org/2000/svg" width="24" height="40" viewBox="0 0 24 40" shape-rendering="crispEdges">
      <path d="M5 6h14v32H5z" fill="#28221a"/>
      <path d="M7 7h10v30H7z" fill="#6a5840"/>
      <path d="M4 4h16v5H4zM3 34h18v5H3z" fill="#28221a"/>
      <path d="M5 3h14v5H5zM5 33h14v5H5z" fill="#907858"/>
      <path d="M8 10h2v20H8zM14 10h2v20h-2z" fill="#504030"/>
      <path d="M8 8h7v1H8zM7 33h10v1H7z" fill="#c8a878" opacity=".7"/>
      <path d="M6 12h4v2H6zM15 22h3v2h-3zM8 31h5v2H8z" fill="#489030"/>
    </svg>
