<svg xmlns="http://www.w3.org/2000/svg" width="48" height="18" viewBox="0 0 48 18" shape-rendering="crispEdges">
      <path d="M0 3h48v13H0z" fill="#28221a"/>
      <path d="M1 4h46v11H1z" fill="#7f6a50"/>
      <path d="M1 4h46v2H1z" fill="#7a5030"/>
      <path d="M1 2h46v3H1z" fill="#3a7818"/>
      <path d="M1 1h46v2H1z" fill="#90d838"/>
      <path d="M3 0h2v2H3zM8 0h1v2H8zM14 0h2v2h-2zM21 0h1v2h-1zM27 0h2v2h-2zM36 0h2v2h-2zM43 0h2v2h-2z" fill="#a8e85c"/>
      <path d="M2 9h12v1H2zM17 8h29v1H17zM8 4h1v5H8zM22 9h1v5h-1z" fill="#28221a" opacity=".45"/>
      <path d="M4 6h5v2H4zM36 5h4v2h-4z" fill="#68c040"/>
      <path d="M13 6h1v4h1v3h-1v2h-1v-4h-1V8h1zM39 7h1v5h-1z" fill="#28221a" opacity=".65"/>
      
      
      
      
      <path d="M6 14h1v2H6zM15 14h1v2h-1zM41 14h1v2h-1z" fill="#583a20"/>
    </svg>
